<?xml version="1.0" encoding="utf-8"?>
<!-- Generator: Adobe Illustrator 19.0.0, SVG Export Plug-In . SVG Version: 6.00 Build 0)  -->
<svg version="1.1" id="Layer_1" xmlns="http://www.w3.org/2000/svg" xmlns:xlink="http://www.w3.org/1999/xlink" x="0px" y="0px"
	 viewBox="-49 141 512 512" style="enable-background:new -49 141 512 512;" xml:space="preserve">
<style type="text/css">
	.st0{fill:#FFFFFF;}
</style>
<g>
	<path class="st0" d="M463,445v-96h-70c-4.5-17.6-11.5-34.2-20.5-49.5l49.6-49.6L354.1,182l-49.6,49.6c-15.3-9-31.9-16-49.5-20.5
		v-70h-96v70c-17.6,4.5-34.2,11.5-49.5,20.5L59.9,182L-8,249.9l49.6,49.6c-9,15.3-16,31.9-20.5,49.5h-70v96h70
		c4.5,17.6,11.5,34.2,20.5,49.5L-8,544.1L59.9,612l49.6-49.6c15.3,9,31.9,16,49.5,20.5v70h96v-70c17.6-4.5,34.2-11.5,49.5-20.5
		l49.6,49.6l67.9-67.9l-49.6-49.6c9-15.3,16-31.9,20.5-49.5H463z M207,493c-53,0-96-43-96-96s43-96,96-96s96,43,96,96
		S260,493,207,493z"/>
</g>
</svg>
