<?xml version="1.0" encoding="utf-8"?>
<!-- Generator: Adobe Illustrator 19.0.0, SVG Export Plug-In . SVG Version: 6.00 Build 0)  -->
<svg version="1.1" id="Layer_1" xmlns="http://www.w3.org/2000/svg" xmlns:xlink="http://www.w3.org/1999/xlink" x="0px" y="0px"
	 viewBox="-49 141 512 512" style="enable-background:new -49 141 512 512;" xml:space="preserve">
<style type="text/css">
	.st0{fill:#FFFFFF;}
</style>
<g>
	<path class="st0" d="M19.1,516.5c-37.6,0-68.1,30.7-68.1,68c0,37.6,30.5,67.9,68.1,67.9c37.7,0,68.2-30.3,68.2-67.9
		C87.4,547.1,56.9,516.5,19.1,516.5z"/>
	<path class="st0" d="M-48.9,315v98.1c63.9,0,124,25,169.2,70.3c45.2,45.2,70.1,105.5,70.1,169.7H289C289,466.6,137.4,315-48.9,315z
		"/>
	<path class="st0" d="M-48.8,141v98.2c227.9,0,413.4,185.7,413.4,413.8H463C463,370.8,233.4,141-48.8,141z"/>
</g>
</svg>
