<?xml version="1.0" encoding="utf-8"?>
<!-- Generator: Adobe Illustrator 19.0.0, SVG Export Plug-In . SVG Version: 6.00 Build 0)  -->
<svg version="1.1" id="Layer_1" xmlns="http://www.w3.org/2000/svg" xmlns:xlink="http://www.w3.org/1999/xlink" x="0px" y="0px"
	 viewBox="-49 -6.9 512 804.9" style="enable-background:new -49 -6.9 512 804.9;" xml:space="preserve">
<style type="text/css">
	.st0{fill:#FFFFFF;}
</style>
<path class="st0" d="M459.6,712.9c2.3,5.3,3.4,10.7,3.4,16.1c0,7.5-2,14.5-6,21c-4,6.5-9.6,11.5-16.8,15l-33.8,15.8
	c-13.2,6-26.4,10.3-39.7,13.1c-13.2,2.7-26.6,4.1-40.1,4.1c-21.7,0-43.2-3.6-64.5-10.9c-21.2-7.2-41.5-17.6-60.9-31
	c-19.4-13.5-37.6-29.8-54.6-48.9c-17-19.1-32.2-40.4-45.6-63.9c-8.6-13-17.6-27.9-27-44.6c-8-14.2-17.1-31.3-27.4-51.2
	c-10.3-19.9-20.6-41.9-31.1-66.1C4.7,457-3.8,435.9-10.1,417.7c-6.3-18.1-11.1-33.2-14.6-45.2c-4-14-6.8-26-8.3-36
	c-5.5-18.6-9.6-37-12.2-55.4c-2.6-18.3-3.9-36.5-3.9-54.5c0-23.5,2.4-46.1,7.1-67.9c4.7-21.8,12-42,21.7-60.7
	c9.8-18.7,22.1-35.4,37.1-50.2c15-14.8,32.7-26.8,53.2-36l33.3-15.4c5.3-2.2,10.6-3.4,15.8-3.4c7.4,0,14.4,2.1,20.8,6.2
	c6.4,4.1,11.2,9.8,14.4,17.1l64.2,145.8c2.2,5.3,3.4,10.6,3.4,15.8c0,7.8-2,14.9-6,21.5c-4,6.6-9.6,11.5-16.9,14.8l-66,30.3
	c-8.7,4-15.4,9.9-20,17.6c-4.6,7.8-6.9,16.1-6.9,25.1c0,6.8,1.3,13.2,3.8,19.2L218.3,554c4.2,9.5,10.1,16.5,17.6,21
	c7.5,4.5,15.6,6.7,24.4,6.7c6,0,12.1-1.3,18.3-4.1l66-30.4c5.2-2.2,10.4-3.3,15.7-3.3c7.3,0,14.2,2,20.6,6.2
	c6.5,4.1,11.4,9.8,14.6,17L459.6,712.9z"/>
</svg>
