<?xml version="1.0" encoding="utf-8"?>
<!-- Generator: Adobe Illustrator 19.0.0, SVG Export Plug-In . SVG Version: 6.00 Build 0)  -->
<svg version="1.1" id="Layer_1" xmlns="http://www.w3.org/2000/svg" xmlns:xlink="http://www.w3.org/1999/xlink" x="0px" y="0px"
	 viewBox="-569.7 773 15.4 21.4" style="enable-background:new -569.7 773 15.4 21.4;" xml:space="preserve">
<style type="text/css">
	.st0{fill:none;}
	.st1{fill:#FFFFFF;}
</style>
<g>
	<path class="st0" d="M-562,788.4c0.6,0,1-0.4,1-1h-2C-563,788-562.6,788.4-562,788.4z"/>
	<path class="st1" d="M-562,778c-4.3,0-7.7,3.4-7.7,7.7c0,1.4,0.4,2.7,1,3.8h13.4c0.6-1.1,1-2.4,1-3.8
		C-554.3,781.4-557.7,778-562,778z M-562,788.4c-0.6,0-1-0.4-1-1l1-6l1,6C-561,788-561.4,788.4-562,788.4z"/>
</g>
</svg>
